<svg xmlns="http://www.w3.org/2000/svg" viewBox="0 0 32 32">
  <path d="M4.687,32H15.125V20.625h-3.75v-3.75h3.75V12.187A4.693,4.693,0,0,1,19.813,7.5H24.5v3.75H20.75a1.877,1.877,0,0,0-1.875,1.875v3.75h5.456l-.625,3.75H18.875V32h8.437A4.693,4.693,0,0,0,32,27.312V4.687A4.693,4.693,0,0,0,27.312,0H4.687A4.693,4.693,0,0,0,0,4.687V27.312A4.693,4.693,0,0,0,4.687,32ZM1.875,4.687A2.816,2.816,0,0,1,4.687,1.875H27.312a2.816,2.816,0,0,1,2.813,2.812V27.312a2.816,2.816,0,0,1-2.813,2.813H20.75V22.5h4.544l1.25-7.5H20.75V13.125h5.625v-7.5H19.813a6.57,6.57,0,0,0-6.562,6.562V15H9.5v7.5h3.75v7.625H4.687a2.816,2.816,0,0,1-2.812-2.813Zm0,0"/>
</svg>
