<svg xmlns="http://www.w3.org/2000/svg" viewBox="0 0 20.383 32">
  <g id="Group_107" data-name="Group 107" transform="translate(2.193)">
    <path id="Path_86" data-name="Path 86" d="M136.016,0a8,8,0,1,0,8,8A8.008,8.008,0,0,0,136.016,0Zm0,14a6,6,0,1,1,6-6A6.007,6.007,0,0,1,136.016,14Z" transform="translate(-128.016)"/>
 </g>
  <g id="Group_109" data-name="Group 109" transform="translate(2.194 20.027)">
    <path id="Path_87" data-name="Path 87" d="M143.853,330.831l-7-10a1.04,1.04,0,0,0-1.638,0l-7,10a1,1,0,0,0,1.638,1.148l6.18-8.83,6.182,8.83a1,1,0,0,0,1.638-1.148Z" transform="translate(-128.034 -320.432)"/>
  </g>
  <g id="Group_111" data-name="Group 111" transform="translate(0 16.192)">
    <path id="Path_88" data-name="Path 88" d="M113.027,259.356a1,1,0,0,0-1.414,0,12.011,12.011,0,0,1-16.97,0,1,1,0,0,0-1.414,1.414,14.015,14.015,0,0,0,19.8,0A1,1,0,0,0,113.027,259.356Z" transform="translate(-92.936 -259.064)"/>
  </g>
</svg>
