<?xml version="1.0" encoding="utf-8"?><svg xmlns="http://www.w3.org/2000/svg" xmlns:xlink="http://www.w3.org/1999/xlink"><symbol viewBox="0 0 24 24" id="icon-24hours"><path d="M23.6 21.5h-1.3v-7.8a.4.4 0 00-.7-.2l-5.8 8.2a.4.4 0 00.4.7h5.3v1.2a.4.4 0 10.9 0v-1.3h1.2a.4.4 0 100-.8zm-2 0H17l4.5-6.5z"/><path d="M16.5 23.2h-5l4.6-5.4a2.9 2.9 0 00-.6-3.9 3.3 3.3 0 00-5.2 2.7.4.4 0 10.8 0 2.5 2.5 0 014-2 2 2 0 01.4 2.7l-5.1 6a.4.4 0 00.3.7h5.8a.4.4 0 000-.8z"/><path d="M10.8 21.1a.4.4 0 00-.4-.4 10 10 0 01-9.6-9.5h1.6a.4.4 0 100-.8H.8A10 10 0 0110.4.8V2a.4.4 0 00.8 0V.8a10 10 0 019.6 9.4l-1.6-1.6a.4.4 0 00-.5.6l2.2 2.2a.4.4 0 00.1.1.4.4 0 00.2 0 .4.4 0 00.1 0 .4.4 0 00.2 0l2.3-2.3a.4.4 0 00-.6-.6l-1.6 1.6A10.8 10.8 0 0010.8 0 10.8 10.8 0 000 10.7v.1a10.8 10.8 0 0010.4 10.7.4.4 0 00.4-.3z"/><path d="M16.3 5.4a.4.4 0 00-.6 0l-4.4 4.4a1.3 1.3 0 00-1 0L8 7.7a.4.4 0 00-.5.6l2 2a1.2 1.2 0 102.3 0L16.3 6a.4.4 0 000-.6zm-5.2 5.8a.4.4 0 01-.6 0 .4.4 0 11.6 0z"/></symbol><symbol viewBox="0 0 18 18" id="icon-a1"><path d="M12 5.4l.7.2s1.1-.5 1.8-1.1c.7-.7-.2-1-.2-1L12 5.4zM6.6 2.2l-1.1.7L.7 16.3l.9.5z"/><path d="M12 3.2v2.1s1.1-.5 2-1.3v6.5l2.3.2V.5l-1.8.3c0-.2-.4 1.4-2.5 2.4zM16.3.5l.5.4v9.7l-.5.1zM7.6 8l2 7.5 1 .3-2.3-9.5z"/><path d="M13.5 15.6L9.7 2.9l-3.1-.7-5 14.6 3.4-.3.8-2.9 4.1-.2.7 2.5 2.9-.3zm-6.7-4.5l1.5-4.7 1.1 4.7H6.8z"/></symbol><symbol viewBox="0 0 18 18" id="icon-a1--colored"><style>.st0{fill:#0e0e0e}.st1{fill:#8f0000}</style><path class="acst0" d="M12 5.4l.7.2s1.1-.5 1.8-1.1c.7-.7-.2-1-.2-1L12 5.4z"/><path class="acst1" d="M6.6 2.2l-1.1.7L.7 16.3l.9.5z"/><path d="M12 3.2v2.1s1.1-.5 2-1.3v6.5l2.3.2V.5l-1.8.3c0-.2-.4 1.4-2.5 2.4z" fill="#3a3a3a"/><path class="acst0" d="M16.3.5l.5.4v9.7l-.5.1z"/><path class="acst1" d="M7.6 8l2 7.5 1 .3-2.3-9.5z"/><path d="M13.5 15.6L9.7 2.9l-3.1-.7-5 14.6 3.4-.3.8-2.9 4.1-.2.7 2.5 2.9-.3zm-6.7-4.5l1.5-4.7 1.1 4.7H6.8z" fill="#e70707"/></symbol><symbol viewBox="0 0 24 24" id="icon-arrow"><path fill="none" vector-effect="non-scaling-stroke" d="M7 11l5 4 5-4"/></symbol><symbol viewBox="0 0 24 24" stroke-width="2" id="icon-burger"><path d="M3 5h18M3 12h18M3 19h18"/></symbol><symbol viewBox="0 0 750 471" id="icon-card-maestro"><path d="M697 471H53c-29 0-53-23-53-52V52C0 23 24 0 53 0h644c29 0 53 23 53 52v367c0 29-24 52-53 52zM53 28c-13 0-24 11-24 24v367c0 13 11 24 24 24h644c13 0 24-11 24-24V52c0-13-11-24-24-24H53z"/><path d="M287 409v-23c0-9-6-15-15-15-4 0-9 1-13 7-2-4-6-7-12-7a12 12 0 00-11 6v-5h-8v37h8v-21c0-6 4-9 9-9 6 0 8 3 8 9v21h8v-21c0-6 4-9 10-9 5 0 8 3 8 9v21h8zm45-18v-19h-8v5c-2-4-6-6-12-6-10 0-18 8-18 20s8 19 18 19c6 0 10-2 12-5v4h8v-18zm-30 0c0-7 4-12 11-12s12 5 12 12c0 6-5 11-12 11s-11-5-11-11zm203-20a21 21 0 018 2 19 19 0 016 4 19 19 0 014 6 21 21 0 010 15 19 19 0 01-4 6 19 19 0 01-6 5 22 22 0 01-16 0 19 19 0 01-7-5 19 19 0 01-4-6 21 21 0 010-15 19 19 0 014-6 19 19 0 017-4 21 21 0 018-2zm0 8a12 12 0 00-5 1 11 11 0 00-4 2 11 11 0 00-2 4 13 13 0 000 9 11 11 0 002 4 11 11 0 004 3 13 13 0 009 0 11 11 0 004-3 11 11 0 002-4 13 13 0 000-9 11 11 0 00-2-4 11 11 0 00-4-2 12 12 0 00-4-1zm-129 12c0-12-7-20-18-20-10 0-18 8-18 20 0 11 8 19 19 19 6 0 11-1 15-5l-4-6a18 18 0 01-11 4c-5 0-9-3-11-9h28v-3zm-28-4c1-5 5-9 10-9s9 4 10 9h-20zm62-6a24 24 0 00-12-3c-4 0-7 2-7 5 0 2 3 3 7 3l3 1c8 1 13 4 13 11s-6 12-16 12c-7 0-12-2-17-5l4-6a20 20 0 0013 4c5 0 8-2 8-5 0-2-2-3-7-4h-3c-9-1-13-5-13-11 0-7 6-12 15-12 6 0 12 1 15 4l-3 6zm39-2h-13v17c0 4 1 6 5 6a15 15 0 007-2l2 7a19 19 0 01-10 3c-9 0-13-5-13-14v-17h-7v-7h7v-11h9v11h13v7zm28-8l5 1-2 8a13 13 0 00-5-1c-5 0-8 3-8 9v21h-8v-37h8v5a11 11 0 0110-6zm78-270c-49-48-125-54-180-15a140 140 0 100 228 140 140 0 00220-114 139 139 0 00-40-99zM375 292a122 122 0 010-183 122 122 0 010 183zm-81 30a122 122 0 110-244 120 120 0 0167 20 140 140 0 000 204 120 120 0 01-67 20zm162 0a120 120 0 01-67-20 140 140 0 000-204 120 120 0 0167-20 122 122 0 110 244z"/></symbol><symbol viewBox="0 0 750 471" id="icon-card-mastercard"><path d="M697 471H53c-29 0-53-23-53-52V52C0 23 24 0 53 0h644c29 0 53 23 53 52v367c0 29-24 52-53 52zM53 28c-13 0-24 11-24 24v367c0 13 11 24 24 24h644c13 0 24-11 24-24V52c0-13-11-24-24-24H53z"/><path d="M233 406v-23c0-8-5-14-14-14-4 0-9 1-13 6-2-4-6-6-12-6a13 13 0 00-11 5v-4h-7v36h7v-21c0-6 4-9 9-9 6 0 9 3 9 9v21h7v-21c0-6 4-9 9-9s8 3 8 9v21h8zm119-36h-14v-11h-7v11h-8v6h8v17c0 9 3 14 12 14a21 21 0 0010-3l-2-6a12 12 0 01-7 2c-4 0-6-3-6-6v-18h14v-6zm67-1a11 11 0 00-10 5v-4h-7v36h7v-20c0-7 3-10 8-10h5l2-6a26 26 0 00-5-1zm-102 4c-4-3-9-4-15-4-9 0-15 4-15 11 0 6 5 10 13 11h3c5 1 7 3 7 4 0 3-3 5-9 5a20 20 0 01-12-4l-3 6c5 4 11 4 15 4 11 0 16-4 16-11s-4-10-12-11h-4c-3-1-6-2-6-4 0-3 3-5 7-5 5 0 9 2 11 3l4-5zm110 15c0 11 7 19 19 19 5 0 9-1 13-4l-4-6a15 15 0 01-9 3c-7 0-12-5-12-12s5-12 12-12a15 15 0 019 4l4-6c-4-3-8-4-13-4-11-1-19 7-19 18zm-51-19c-10 0-18 7-18 19 0 11 8 19 19 19a23 23 0 0015-5l-4-5a18 18 0 01-11 3c-5 0-10-3-11-9h27v-3c0-12-7-19-17-19zm0 7c5 0 9 3 9 9h-19c1-6 4-9 10-9zm-98 12v-18h-8v4c-2-3-6-5-11-5-11 0-18 8-18 19s7 19 18 19c5 0 9-2 11-6v5h8v-18zm-30 0c0-7 5-12 12-12s11 5 11 12-5 12-11 12c-7 0-12-5-12-12zm281-19a11 11 0 00-10 5v-4h-7v36h7v-20c0-7 3-10 8-10h5l2-6a26 26 0 00-5-1zm-28 19v-18h-8v4c-2-3-6-5-11-5-11 0-18 8-18 19s7 19 18 19c5 0 9-2 11-6v5h8v-18zm-30 0c0-7 4-12 12-12 7 0 11 5 11 12s-5 12-11 12c-8 0-12-5-12-12zm103 0v-33h-8v19c-2-3-6-5-11-5-11 0-18 8-18 19s7 19 18 19c5 0 9-2 11-6v5h8v-18zm-30 0c0-7 5-12 12-12s11 5 11 12-5 12-11 12c-7 0-12-5-12-12zm7-284c-48-47-122-53-176-14a136 136 0 100 222 136 136 0 00216-111 136 136 0 00-40-97zM375 290a120 120 0 010-179 120 120 0 010 179zm-79 30a119 119 0 110-238 118 118 0 0165 19 137 137 0 000 200 118 118 0 01-65 19zm158 0a118 118 0 01-65-19 137 137 0 000-200 118 118 0 0165-19 119 119 0 110 238z"/></symbol><symbol viewBox="0 0 750 471" id="icon-card-visa"><path d="M53 28c-13 0-24 11-24 24v367c0 13 11 24 24 24h644c13 0 24-11 24-24V52c0-13-11-24-24-24H53zm0-28h644c29 0 53 23 53 52v367c0 29-24 52-53 52H53c-29 0-53-23-53-52V52C0 23 24 0 53 0z"/><path d="M283 330l31-187h51l-31 187zm235-183c-11-3-26-8-46-8-50 0-86 26-86 62 0 27 25 42 44 51 20 9 27 15 27 23 0 13-16 18-31 18-20 0-31-3-48-10l-6-2-7 41c12 6 34 10 56 10 54 0 89-25 89-64 0-21-13-37-43-50-17-9-28-15-28-23s9-17 29-17c17 0 29 4 38 8l5 2 7-41m131-4h-40c-12 0-21 4-26 16l-76 171h53l11-28h65l7 28h47l-41-187zm-63 121l20-52 7-18 4 16 11 54h-42zM239 143l-50 128-5-26c-9-30-38-62-70-79l45 164h54l80-187h-54"/><path d="M143 143H61l-1 4c64 16 106 53 124 98l-18-86c-3-12-12-15-23-16"/></symbol><symbol viewBox="0 0 24 24" id="icon-cart"><path d="M6 8h12a1 1 0 011 1v4a35.5 35.5 0 001 7 1 1 0 01-1 1H5a1 1 0 01-1-1 35.5 35.5 0 001-7V9a1 1 0 011-1z" vector-effect="non-scaling-stroke"/><path d="M9 10s-.8-3.3 0-5 1.5-2 3-2 2.3.3 3 2 0 5 0 5" vector-effect="non-scaling-stroke"/></symbol><symbol viewBox="0 0 24 24" fill="none" stroke-linecap="round" id="icon-close"><path vector-effect="non-scaling-stroke" d="M7 7l10 10M7 17L17 7"/></symbol><symbol viewBox="0 0 32.8 24" id="icon-delivery"><path d="M26.6 7.7h-2L25 .5a.5.5 0 00-.3-.5h-10a.5.5 0 000 1H24l-1 11-.2 2.8H6.2l.3-3h3.2a.5.5 0 000-.9H6.6l.6-6.1h5a.5.5 0 100-1h-5L7.7 1H13a.5.5 0 000-1H7a.5.5 0 00-.4.4l-.4 3.4H.5a.5.5 0 000 1h5.7l-.6 6.1H4a.5.5 0 000 1h1.6l-.3 3.3-.5 5.1c0 .1 0 0 0 0v.1a.5.5 0 00.1.3.5.5 0 00.2 0v.1h2.3a3.7 3.7 0 007.3 0h7.7a3.7 3.7 0 007.3 0H32v-.1h.1v-.2c.1-.3.5-3.3.6-5.2l.1-1.4a6.3 6.3 0 00-6.2-6.2zm-2.2 1h2l-.3 2.8h-2zM11 23a2.7 2.7 0 112.7-2.7A2.7 2.7 0 0111 23zm15 0a2.7 2.7 0 112.6-2.7A2.7 2.7 0 0126 23zm5.3-3.2h-1.7a3.7 3.7 0 00-7.3 0h-7.7a3.7 3.7 0 00-7.3 0H5.7l.4-4.1h17.5v-.1h.1v-.1h.1v-.2l.3-2.8h2.5a3.4 3.4 0 012.8 1.6 4 4 0 002.4 1.6l-.5 4.2zm.5-5.1a3.1 3.1 0 01-1.7-1.3 4.5 4.5 0 00-3-1.9l.3-2.8a5.3 5.3 0 014.5 5.2v.8z"/><path d="M11 18a2 2 0 102 2 2 2 0 00-2-2zm0 2.8a.9.9 0 111-.8.9.9 0 01-1 .9zM25.8 18a2 2 0 102 2 2 2 0 00-2-2zm0 2.8a.9.9 0 11.9-.8.9.9 0 01-.9.9zM5 7.6H2.4a.5.5 0 000 1.1H5a.5.5 0 000-1z"/></symbol><symbol viewBox="0 0 562.6 130.1" id="icon-erip"><path d="M39 93l-8 37H0L23 2h28l-1 11 7-6c10-6 20-8 31-4 10 3 16 11 18 22 4 24-2 45-21 61-10 8-29 14-46 7zm35-53c0-7-2-11-6-13s-10 0-14 5a30 30 0 00-6 14l-4 20a4 4 0 002 3c4 4 11 4 16-1 9-8 11-18 12-28zm123 53h-29l1-16-3 5c-10 13-26 17-39 10-9-5-14-13-15-23-2-20 4-38 19-52 9-10 21-14 35-16s28-1 41 3c2 1 3 1 3 4l-10 51-3 30a33 33 0 000 4zm-23-68c-5-1-10 0-14 2-9 6-17 23-15 34 1 4 2 7 6 9a9 9 0 0011-4l5-9 5-20 2-12zm242 36c1 4 4 7 7 8a33 33 0 0018 2l20-5v5l2 15c0 2-1 3-3 4a81 81 0 01-24 5c-8 1-15 1-23-1-16-3-26-15-27-31s2-31 12-43c13-16 37-24 56-17 12 3 20 13 20 26s-6 22-19 27c-10 4-20 4-30 5h-9zm3-23h8a124 124 0 0014-3c2-1 3-4 3-6s-2-4-5-5c-9-2-18 4-20 14zm-85 56l7-33c-8 4-17 4-25 4-7-1-14-3-19-9-6-6-6-14-5-21l6-30 2-2h30l-3 13-2 16c-1 8 4 10 10 10a20 20 0 004 0c5-1 6-3 7-7l5-29 2-3h29l1 1-3 16-13 69c-1 5-1 5-7 5h-26zM291 3l-8 24c-7-1-13-2-19 0-14 4-20 17-19 29 0 10 8 16 19 14l13-3v21c0 3-1 4-3 4a118 118 0 01-12 3c-8 1-16 1-24-1-16-4-25-16-27-32-1-17 4-32 16-44 10-10 22-15 36-17a65 65 0 0124 1l4 1zm272-1l-4 17c-1 5-1 6-7 6h-18c-2 0-3 1-3 3l-8 39-5 26h-31l12-68h-23l1-6 3-14c1-2 1-3 3-3h78a15 15 0 012 0z"/></symbol><symbol viewBox="0 0 27.4 24" id="icon-exchange"><path d="M2.2 9.2a.6.6 0 00.5 0l4.5-1.8a.5.5 0 00.2-.7.6.6 0 00-.7-.2L3.5 7.7A11 11 0 0114 1c5 0 9.5 3 10.8 7.4a.6.6 0 00.7.3.5.5 0 00.4-.6C24.5 3.3 19.6 0 14 0 8.7 0 4.1 3 2.4 7.4l-1.3-3a.6.6 0 00-.7-.3.5.5 0 00-.4.6.3.3 0 000 .1L2 9a.6.6 0 00.3.3zm25.2 10L25.6 15a.6.6 0 00-.4-.3.7.7 0 00-.4 0l-4.5 1.8a.5.5 0 00-.3.7.6.6 0 00.7.3l3.2-1.3A11 11 0 0113.4 23c-5 0-9.4-3-10.7-7.3a.6.6 0 00-.7-.4.5.5 0 00-.4.6C3 20.7 7.8 24 13.4 24c5.3 0 10-3 11.6-7.4l1.3 3a.6.6 0 00.8.3.5.5 0 00.3-.7z"/></symbol><symbol viewBox="0 0 24 24" id="icon-facebook"><path d="M13.4 20v-7.3H16l.4-2.8h-2.9V8c0-.8.3-1.3 1.4-1.3h1.6V4A20.3 20.3 0 0014 4c-2.1 0-3.6 1.3-3.6 3.8v2H8v2.9h2.5V20h3z" fill="#FFF" fill-rule="evenodd"/></symbol><symbol viewBox="0 0 24 24" id="icon-filter" xmlns="http://www.w3.org/2000/svg"><path d="M20.3 5.3a.5.5 0 00-.5-.3H3.5a.5.5 0 00-.4.9l6.3 7.6v7a.5.5 0 00.7.4l3.6-1.7a.5.5 0 00.2-.5v-5.2l6.3-7.6a.5.5 0 00.1-.6zM13 12.9a.5.5 0 00-.1.4v5.1l-2.5 1.2v-6.3a.5.5 0 00-.1-.4L4.6 6h14.1z"/></symbol><symbol viewBox="0 0 29.6 24" id="icon-garant"><path d="M23.5 5.1H6a.5.5 0 000 1h17.4a.5.5 0 000-1zm0 4.7H6a.5.5 0 000 1h17.4a.5.5 0 000-1zm-5.7 3.1h-6a.5.5 0 100 .9h6a.5.5 0 100-.9zm5.6-5.4h-13a.5.5 0 000 .9h13a.5.5 0 000-1zm-14.7 0H6.4a.5.5 0 100 .9h2.3a.5.5 0 100-1z"/><path d="M27.3 4.5a.5.5 0 00-.4-.1 1.6 1.6 0 01-1.6-1.6.5.5 0 00-.5-.6h-20a.5.5 0 00-.6.5 1.7 1.7 0 01-1.6 1.7.5.5 0 00-.5.5v11.5a.5.5 0 00.5.6 1.7 1.7 0 011.6 1.6.5.5 0 00.5.5h12.8a.5.5 0 000-.9H5a2.5 2.5 0 00-2-2v-11a2.5 2.5 0 002-2h19.5a2.5 2.5 0 002.1 2v7.6a.4.4 0 10.9 0V5a.6.6 0 00-.2-.4z"/><path d="M28.4 0H1.2A1.2 1.2 0 000 1.2v18.4a1.2 1.2 0 001.2 1.2h18.2l-.6 1.3a.5.5 0 00.5.7l1.2-.2.7 1.1a.5.5 0 00.4.3.5.5 0 00.5-.3l1.2-2.4 1.1 2.4a.5.5 0 00.5.3.5.5 0 00.4-.3l.7-1 1.2.2a.5.5 0 00.6-.8l-.7-1.3h1.3a1.2 1.2 0 001.2-1.2V1.2A1.2 1.2 0 0028.4 0zm-6.8 22.8l-.5-.8a.5.5 0 00-.5-.2h-.8l.9-1.6a1.6 1.6 0 001.2.4.7.7 0 01.5.2 1.5 1.5 0 00.1 0zm1.8-2.6a.7.7 0 01-.2 0 .7.7 0 01-.3-.1 1.6 1.6 0 00-1-.3.7.7 0 01-.7-.4 1.5 1.5 0 00-.2-.3 1.5 1.5 0 00-.6-.5.7.7 0 01-.4-.7 1.6 1.6 0 00-.3-1 .7.7 0 010-.8 1.6 1.6 0 00.3-1 .7.7 0 01.4-.7 1.6 1.6 0 00.8-.8.7.7 0 01.6-.4 1.6 1.6 0 001-.2.7.7 0 01.9 0 1.6 1.6 0 001 .2.7.7 0 01.7.4 1.6 1.6 0 00.7.8.7.7 0 01.4.7 1.6 1.6 0 00.3 1 .7.7 0 010 .8 1.6 1.6 0 00-.3 1 .7.7 0 01-.4.7 1.5 1.5 0 00-.5.4 1.5 1.5 0 00-.2.4.7.7 0 01-.7.4 1.6 1.6 0 00-1 .3.7.7 0 01-.3 0zm2.5 1.6a.5.5 0 00-.5.2l-.5.7-.9-1.9a1.6 1.6 0 00.1 0 .7.7 0 01.5-.2 1.6 1.6 0 001.3-.4l.8 1.7zm2.8-2.3a.3.3 0 01-.3.4h-1.7l-.2-.5a1.6 1.6 0 00.9-1.5.7.7 0 01.1-.5 1.6 1.6 0 000-1.8.7.7 0 01-.1-.4 1.6 1.6 0 00-.9-1.6.7.7 0 01-.3-.3 1.6 1.6 0 00-1.6-1 .7.7 0 01-.4 0 1.6 1.6 0 00-1.8 0 .7.7 0 01-.5 0 1.6 1.6 0 00-1.5 1 .7.7 0 01-.4.3 1.6 1.6 0 00-.9 1.6.7.7 0 01-.1.4 1.6 1.6 0 000 1.8.7.7 0 01.1.5 1.6 1.6 0 001 1.5l-.3.5H1.2a.3.3 0 01-.3-.3V1.2a.3.3 0 01.3-.3h27.2a.3.3 0 01.3.3z"/><path d="M23 13.7a2.8 2.8 0 102.8 2.8 2.8 2.8 0 00-2.8-2.8zm0 4.7a1.9 1.9 0 112-2 1.9 1.9 0 01-2 2z"/></symbol><symbol viewBox="0 0 30 24" id="icon-gift"><path d="M30 17.1a2 2 0 00-1.7-1.3V5.4h1a.5.5 0 00.5-.4V.5a.5.5 0 00-.5-.5H7.4a.5.5 0 00-.5.5V5a.5.5 0 00.5.4h1v9H8a6.9 6.9 0 00-3.4 1v-2.3a.5.5 0 00-.5-.4H.5a.5.5 0 00-.5.4v10.5a.5.5 0 00.5.4H4a.5.5 0 00.5-.4v-2.3a6.9 6.9 0 003.5.9h8a7.1 7.1 0 001.7-.2l10.7-2.6A1.8 1.8 0 0030 17zM8 1h20.8v3.6H7.9zm1.4 4.5h18V16l-5.8 1.4a2 2 0 00-1.4-1l-6.7-1.7a5 5 0 00-1.1-.1h-3zm-6 17.7H1v-9.5h2.5zm24.9-4.6l-10.8 2.6a6 6 0 01-1.4.2H7.9a5.8 5.8 0 01-3.2-1l-.2-.2v-3.6l.2-.1a5.8 5.8 0 013.2-1h4.5a3.8 3.8 0 01.9 0l6.7 1.7a1 1 0 01.7.8.4.4 0 000 .1.7.7 0 010 .2 1 1 0 01-1 .7 1 1 0 01-.2 0l-4.3-1a.5.5 0 00-.5 0 .4.4 0 000 .5.5.5 0 00.3.3l4.2 1a2.2 2.2 0 00.5.1 2 2 0 002-1.3 1.5 1.5 0 000-.3l6-1.5h.2a1 1 0 011 .7.8.8 0 01.1.2 1 1 0 01-.7.9zm0 0"/><path d="M16 7.3h4.8a.5.5 0 100-1H16a.5.5 0 000 1zm0 0"/></symbol><symbol viewBox="0 0 533.5 544.3" id="icon-google"><path class="arst0" d="M534 278c0-18-2-37-5-55H272v105h147c-6 34-26 64-54 83v68h87c52-48 82-118 82-201z" fill="#4285F4"/><path class="arst1" d="M272 544c74 0 135-24 181-65l-88-68c-25 16-56 26-93 26-71 0-131-48-153-113H29v70c46 92 140 150 243 150z" fill="#34A853"/><path class="arst2" d="M119 324c-11-33-11-70 0-104v-70H29c-39 77-39 168 0 244l90-70z" fill="#FBBC04"/><path class="arst3" d="M272 108c39-1 76 14 105 41l77-78a272 272 0 00-425 79l90 70c22-64 82-112 153-112z" fill="#EA4335"/></symbol><symbol viewBox="0 0 554.2 289.3" id="icon-life"><path d="M132 14H87l-1 32h46V14m-79 0H8c0 31-3 103-8 216h43c0-28 4-100 10-216m76 56H85c-1 72-3 125-6 160h47l3-160m24-1l-5 33h23l-4 128h45l1-128h29l7-33h-37v-5c0-13 2-21 5-24 4-3 17-4 38-4l6-30h-39c-16 1-28 6-36 14-8 7-13 22-13 45v4h-20m234 25a72 72 0 00-60-26 85 85 0 00-88 82c-2 25 4 45 19 60 13 14 33 22 57 23 22 0 42-2 61-6l6-33c-15 7-33 10-56 10-20 0-33-6-39-18-3-7-4-14-4-21l1-10h117l1-3c1-24-4-43-15-58zm-89 10c7-7 17-11 28-11 12 0 21 5 27 14 5 7 7 15 6 24l-1 4h-72c1-12 5-23 12-31m180 10l1-43h-51l-1 43h51m60-68c-10-24-17-40-21-46h-29c13 25 22 52 25 81 2 15 3 36 2 63a285 285 0 01-42 145h33a314 314 0 0032-62 257 257 0 000-181M423 189l-2 42h51l1-42h-50"/></symbol><symbol viewBox="0 0 554.2 289.3" fill="#062594" id="icon-life--colored"><path d="M132 14H87l-1 32h46V14m-79 0H8c0 31-3 103-8 216h43c0-28 4-100 10-216m76 56H85c-1 72-3 125-6 160h47l3-160m24-1l-5 33h23l-4 128h45l1-128h29l7-33h-37v-5c0-13 2-21 5-24 4-3 17-4 38-4l6-30h-39c-16 1-28 6-36 14-8 7-13 22-13 45v4h-20m234 25a72 72 0 00-60-26 85 85 0 00-88 82c-2 25 4 45 19 60 13 14 33 22 57 23 22 0 42-2 61-6l6-33c-15 7-33 10-56 10-20 0-33-6-39-18-3-7-4-14-4-21l1-10h117l1-3c1-24-4-43-15-58zm-89 10c7-7 17-11 28-11 12 0 21 5 27 14 5 7 7 15 6 24l-1 4h-72c1-12 5-23 12-31m180 10l1-43h-51l-1 43h51m60-68c-10-24-17-40-21-46h-29c13 25 22 52 25 81 2 15 3 36 2 63a285 285 0 01-42 145h33a314 314 0 0032-62 257 257 0 000-181M423 189l-2 42h51l1-42h-50"/></symbol><symbol viewBox="0 0 102 32" id="icon-logo" xmlns="http://www.w3.org/2000/svg"><g data-name="Subtraction 1" fill="none"><path d="M63.7 31.6V30c10.1-.3 19.5-1.4 26.4-3.3 6.9-2 10.7-4.4 10.7-7 0-1.3-1.1-2.7-3.3-4a34.3 34.3 0 00-8.8-3.2c-7.8-2-18.2-3-29.3-3-11.3 0-22 1-29.8 3.1h-1.4a116 116 0 0131.8-4c11.3 0 21.9 1.3 29.8 3.6a32.3 32.3 0 019 3.8c2.1 1.5 3.2 3 3.2 4.5s-1 3-3 4.2a28.7 28.7 0 01-8 3.5c-7 2-16.7 3.2-27.3 3.4z"/><path d="M63.7 31.6V30c10.1-.3 19.5-1.4 26.4-3.3 6.9-2 10.7-4.4 10.7-7 0-1.3-1.1-2.7-3.3-4-2-1.2-5-2.3-8.8-3.2-7.8-2-18.2-3-29.3-3-11.3 0-22 1-29.8 3.1h-1.4c8.3-2.5 20-4 31.8-4 11.3 0 21.9 1.3 29.8 3.6 3.9 1.1 6.9 2.4 9 3.8 2.1 1.5 3.2 3 3.2 4.5s-1 3-3 4.2a28.9 28.9 0 01-8 3.5c-7 2-16.7 3.2-27.3 3.4z" fill="#fff"/></g><path data-name="Logo ПосудаМАРТ" d="M9.4 10v13.7H8.3V11H1.2v12.7H0V10zm6.4 13.8a4.4 4.4 0 01-2.2-.6 4 4 0 01-1.6-1.5 4.4 4.4 0 01-.5-2.2 4.4 4.4 0 01.5-2.2 4 4 0 011.6-1.5 4.4 4.4 0 012.2-.6 4.4 4.4 0 012.2.6 4 4 0 011.5 1.5 4.4 4.4 0 01.5 2.2 4.4 4.4 0 01-.5 2.2 4 4 0 01-1.5 1.5 4.4 4.4 0 01-2.2.6zm0-1a3.2 3.2 0 001.6-.4 2.8 2.8 0 001-1.2 3.6 3.6 0 00.5-1.7 3.6 3.6 0 00-.4-1.7 2.8 2.8 0 00-1.1-1.2 3.2 3.2 0 00-1.6-.4 3.2 3.2 0 00-1.6.4 2.9 2.9 0 00-1.2 1.2 3.5 3.5 0 00-.4 1.7 3.5 3.5 0 00.4 1.7 2.9 2.9 0 001.2 1.2 3.2 3.2 0 001.6.4zm9.5 1a4.5 4.5 0 01-2.2-.6 4 4 0 01-1.5-1.5 4.4 4.4 0 01-.6-2.2 4.4 4.4 0 01.6-2.2 4 4 0 011.5-1.5 4.5 4.5 0 012.2-.6 4.3 4.3 0 012 .5 3.2 3.2 0 011.3 1.2l-.8.6a2.6 2.6 0 00-1-1 3.1 3.1 0 00-1.5-.3 3.3 3.3 0 00-1.6.4 2.9 2.9 0 00-1.1 1.2 3.5 3.5 0 00-.4 1.7 3.5 3.5 0 00.4 1.7 2.9 2.9 0 001.1 1.2 3.3 3.3 0 001.6.4 3.2 3.2 0 001.4-.3 2.6 2.6 0 001-1l1 .6a3.2 3.2 0 01-1.4 1.3 4.3 4.3 0 01-2 .4zm12-8.5L33 24.7a4 4 0 01-1.2 1.7 2.6 2.6 0 01-1.6.5 3.3 3.3 0 01-1.1-.2 2.5 2.5 0 01-1-.6l.6-.8a2.1 2.1 0 001.5.6 1.6 1.6 0 001-.3 2.9 2.9 0 00.8-1.1l.3-.8-3.7-8.4h1.2l3.1 7.1 3.2-7.1zm8.9 7.4v3h-1v-2h-7.6v2h-1v-3h.4q.8 0 1.1-1.2a18.3 18.3 0 00.5-3.4v-2.8H45v7.4zm-6.6-4.5a21 21 0 01-.3 3 2.5 2.5 0 01-.8 1.5h5.3v-6.4h-4.1zm11-3a3.6 3.6 0 012.6.9 3.2 3.2 0 01.9 2.4v5.2H53v-1.3a2.6 2.6 0 01-1.1 1 4 4 0 01-1.8.4 3.5 3.5 0 01-2.3-.7 2.2 2.2 0 01-.8-1.8 2.1 2.1 0 01.8-1.7 3.8 3.8 0 012.5-.6h2.6v-.6a2.2 2.2 0 00-.6-1.6 2.5 2.5 0 00-1.8-.6 4.5 4.5 0 00-1.5.3 3.9 3.9 0 00-1.3.7l-.5-.8a4.5 4.5 0 011.6-.9 6 6 0 011.9-.3zm-.3 7.7a3 3 0 001.6-.4 2.6 2.6 0 001-1.3v-1.4h-2.6q-2.2 0-2.2 1.5a1.4 1.4 0 00.6 1.2 2.5 2.5 0 001.6.4zm14.4.8l3-20.8-5.8 11.4H61L54.3 2.9l3.9 20.8h-1.9L52.5 0h2.1l7 12 6-12h1.8l-2.9 23.7zm7-8.6a4.2 4.2 0 013 .9 3.5 3.5 0 011 2.7v5h-2v-1a2.3 2.3 0 01-1 .8 4.1 4.1 0 01-1.6.3 4 4 0 01-1.7-.3 2.6 2.6 0 01-1.1-1 2.3 2.3 0 01-.4-1.3 2.3 2.3 0 01.9-1.8 4.3 4.3 0 012.7-.7h2.2v-.1a1.8 1.8 0 00-.6-1.4 2.3 2.3 0 00-1.6-.5 4.6 4.6 0 00-1.4.2 3.5 3.5 0 00-1.1.7l-.8-1.5a4.9 4.9 0 011.6-.8 7.2 7.2 0 012-.2zm-.2 7.3A2.6 2.6 0 0073 22a1.9 1.9 0 00.8-1v-1h-2Q70 20 70 21.2a1 1 0 00.4.8 2 2 0 001.2.4zM82.3 15a4.5 4.5 0 012.2.5A4 4 0 0186 17a4.6 4.6 0 01.6 2.3 4.6 4.6 0 01-.6 2.3 3.9 3.9 0 01-1.5 1.6 4.5 4.5 0 01-2.2.5 3.5 3.5 0 01-2.8-1.1v8.9h-2V15.2h2v1a3.1 3.1 0 011.1-.8 4.1 4.1 0 011.6-.3zm-.3 7a2.4 2.4 0 001.8-.7 2.7 2.7 0 00.7-2 2.7 2.7 0 00-.7-2 2.4 2.4 0 00-1.8-.6 2.6 2.6 0 00-1.3.3 2.4 2.4 0 00-.9 1 2.9 2.9 0 00-.3 1.3 2.9 2.9 0 00.3 1.4 2.4 2.4 0 001 1 2.6 2.6 0 001.2.3zm12.4-5.3h-3v6.9h-2v-6.9h-3V15h8z" fill="#fff"/></symbol><symbol viewBox="0 0 24 24" fill="none" stroke-linejoin="round" id="icon-long-arrow"><path vector-effect="non-scaling-stroke" d="M15 7l4 5-4 5M4 12h15"/></symbol><symbol viewBox="0 -1 24 24" id="icon-love"><path d="M16 4a4.5 4.5 0 00-4 2 4.3 4.3 0 00-4-2 5.1 5.1 0 00-5 5c0 2 1.4 4.1 4 6.8a36.8 36.8 0 004.7 4l.3.2.3-.2a36.8 36.8 0 004.8-4C19.6 13 21 11 21 8.9A5.1 5.1 0 0016 4z" vector-effect="non-scaling-stroke"/></symbol><symbol viewBox="0 0 32 32" id="icon-mts"><path d="M30 2v28H2V2h28m.5-2h-29A1.5 1.5 0 000 1.5v29A1.5 1.5 0 001.5 32h29a1.5 1.5 0 001.5-1.5v-29A1.5 1.5 0 0030.5 0z"/><path d="M15.6 3.3c4.5 0 9.4 8.1 9.4 15.2 0 5.5-3.2 10.2-9.4 10.2S6.2 24 6.2 18.5c0-7.1 4.9-15.2 9.4-15.2"/></symbol><symbol viewBox="0 0 32 32" fill="#e30613" id="icon-mts--colored"><path d="M30 2v28H2V2h28m.5-2h-29A1.5 1.5 0 000 1.5v29A1.5 1.5 0 001.5 32h29a1.5 1.5 0 001.5-1.5v-29A1.5 1.5 0 0030.5 0z"/><path d="M15.6 3.3c4.5 0 9.4 8.1 9.4 15.2 0 5.5-3.2 10.2-9.4 10.2S6.2 24 6.2 18.5c0-7.1 4.9-15.2 9.4-15.2"/></symbol><symbol viewBox="0 0 32 32" id="icon-newsletter"><path d="M32 12a.5.5 0 00-.2-.4L25.5 7a.5.5 0 10-.5.7l5.7 4.3-6.2 3.9v-7a.5.5 0 00-.2-.3l-8-6a.5.5 0 00-.6 0l-8 6a.5.5 0 00-.2.4v6.9l-6.2-4L16 1.2l7.2 5.3a.5.5 0 10.6-.7L16.3 0a.5.5 0 00-.6 0L.2 11.6a.5.5 0 00-.2.4v19.5a.5.5 0 00.5.5h31a.5.5 0 00.5-.5V12zM8.5 9.1L16 3.6l7.5 5.6v7.3L16 21.2l-7.5-4.7zM.9 12.8l14.2 9L1 30.7zm30.2 18.3H2l29-18.3z"/><path d="M16 5.4a2.1 2.1 0 102.1 2.2A2.1 2.1 0 0016 5.4zm0 3.3a1.1 1.1 0 111.1-1.1A1.1 1.1 0 0116 8.7zm3.6 1.7a.5.5 0 00-.7 0L12.4 17a.5.5 0 10.7.8l6.5-6.6a.5.5 0 000-.7zm-1.1 4A1.6 1.6 0 1020 16a1.6 1.6 0 00-1.6-1.6zm0 2.2a.6.6 0 11.6-.6.6.6 0 01-.6.6zm-5-6.2a1.6 1.6 0 101.6 1.6 1.6 1.6 0 00-1.6-1.6zm0 2.2a.6.6 0 11.6-.6.6.6 0 01-.6.6z"/></symbol><symbol viewBox="0 0 24 24" id="icon-ok"><path d="M11.7 6.5A1.7 1.7 0 0010 8.2c0 1 .7 1.7 1.7 1.7a1.7 1.7 0 001.7-1.7 1.7 1.7 0 00-1.7-1.7zm0 5.8a4 4 0 01-4.1-4 4 4 0 014-4.2 4 4 0 014.2 4.1 4 4 0 01-4.1 4.1zM10 15.6a7.6 7.6 0 01-2.3-1 1.2 1.2 0 011.2-2 5.2 5.2 0 005.5 0 1.2 1.2 0 111.3 2 7.6 7.6 0 01-2.4 1l2.3 2.3a1.2 1.2 0 01-1.7 1.7l-2.2-2.2-2.3 2.2a1.2 1.2 0 11-1.7-1.7l2.3-2.3" fill="#FFF" fill-rule="evenodd"/></symbol><symbol viewBox="0 0 24 24" fill="none" id="icon-place"><path d="M12 4a6 6 0 016 6c0 3.3-6 11-6 11s-6-7.7-6-11a6 6 0 016-6z" vector-effect="non-scaling-stroke"/><circle r="2" cx="12" cy="10" vector-effect="non-scaling-stroke"/></symbol><symbol viewBox="0 0 16.8 24" id="icon-placeholder"><path d="M8.5 5.4a2.9 2.9 0 102.9 2.8 2.9 2.9 0 00-3-2.8zm0 5a2 2 0 112-2.1 2 2 0 01-2 2z"/><path d="M14.3 2.5a8.4 8.4 0 00-11.8 0 9.6 9.6 0 00-.8 11.8L8.4 24l6.7-9.7a9.6 9.6 0 00-.8-11.8zm.1 11.3l-6 8.7-6-8.7A8.7 8.7 0 013 3a7.5 7.5 0 0110.6 0 8.7 8.7 0 01.7 10.7z"/></symbol><symbol viewBox="0 0 24 24" fill="none" stroke-linecap="round" id="icon-search"><circle r="8" cx="10" cy="10"/><path d="M20 20l-4-4"/></symbol><symbol stroke-width="2" stroke="#888" fill="none" viewBox="0 0 24 24" id="icon-switch-view--list"><path d="M5 5h5v5H5zm0 9h5v5H5zm9-9h6m-6 4h6m-6 5h6m-6 4h6"/></symbol><symbol stroke-width="2" stroke="#888" fill="none" viewBox="0 0 24 24" id="icon-switch-view--table"><path d="M5 5h5v5H5zm0 9h5v5H5zm9-9h5v5h-5zm0 9h5v5h-5z"/></symbol><symbol viewBox="0 0 24 24" id="icon-tel"><path d="M16.3 13.5A1.6 1.6 0 0015 13a1.7 1.7 0 00-1.2.5l-1 1.2-.4-.2a2.3 2.3 0 01-.3-.2 12.2 12.2 0 01-3-2.7 7.3 7.3 0 01-.9-1.5l.9-.8.3-.3a1.7 1.7 0 000-2.5l-1-1-.3-.3-.7-.7A1.7 1.7 0 006.2 4a1.7 1.7 0 00-1.2.5L3.8 5.8A2.6 2.6 0 003 7.4a6.3 6.3 0 00.5 2.7 15.5 15.5 0 002.7 4.6 16.7 16.7 0 005.5 4.4 8.6 8.6 0 003.1.9h.3a2.6 2.6 0 002-.9 8.1 8.1 0 01.6-.7l.5-.4a1.8 1.8 0 00.5-1.2 1.7 1.7 0 00-.5-1.3zM18 10c0-5-5-5-5-5m1-3s7 0 7 7" vector-effect="non-scaling-stroke"/></symbol><symbol viewBox="0 0 24 24" id="icon-telegram"><circle cx="12" cy="12" r="12"/><path d="M5.5 11.7L17 7.3c.5-.2 1 .1.8 1l-2 9.2c-.1.7-.5.8-1 .5l-3-2.2-1.5 1.4c-.2.2-.3.3-.6.3l.2-3 5.6-5c.2-.3 0-.4-.4-.2l-6.9 4.3-3-1c-.6-.1-.6-.5.2-.9z"/></symbol><symbol viewBox="0 0 24 24" id="icon-telegram--colored"><circle cx="12" cy="12" fill="#039be5" r="12"/><path d="M5.5 11.7L17 7.3c.5-.2 1 .1.8 1l-2 9.2c-.1.7-.5.8-1 .5l-3-2.2-1.5 1.4c-.2.2-.3.3-.6.3l.2-3 5.6-5c.2-.3 0-.4-.4-.2l-6.9 4.3-3-1c-.6-.1-.6-.5.2-.9z" fill="#fff"/></symbol><symbol viewBox="0 0 24 24" id="icon-user"><path d="M12 3a5 5 0 11-5 5 5 5 0 015-5zm0 12c5 0 9 2.3 9 4s-4 2-9 2-9-.3-9-2 4-4 9-4z" vector-effect="non-scaling-stroke"/></symbol><symbol viewBox="0 0 24 24" id="icon-viber"><path d="M23.2 13.9c.7-6-.4-9.8-2.3-11.6-3-2.9-13.5-3.3-17.2.2C2 4.2 1.5 6.7 1.4 9.8c0 3.1-.1 9 5.3 10.6v2.4s0 1 .6 1.2c.7.2 1-.3 3.3-3 3.7.4 6.5-.3 6.9-.5.7-.2 5-.8 5.7-6.6zm-12.3 5.5L8 23c-.3.2-.6.2-.6-.3v-4c-4.6-1.3-4.3-6.3-4.2-9 0-2.5.5-4.6 1.9-6C8.2.6 17.4 1.3 19.7 3.5c2.8 2.5 1.8 9.6 1.8 9.9-.6 4.8-4 5.1-4.6 5.3-.3.1-2.8.8-6 .6z"/><path d="M12.2 4.3c-.4 0-.4.6 0 .6 3 0 5.5 2.1 5.5 6 0 .3.6.3.6 0 0-4.2-2.7-6.6-6-6.6z"/><path d="M16.2 10.2c0 .4.5.4.5 0a4 4 0 00-4-4.3c-.3 0-.4.5 0 .6 2.3.1 3.5 1.7 3.5 3.7zm-.7 2.6a1 1 0 00-1.2.1l-.4.6c-.2.3-.7.3-.7.3-3-.8-3.8-4-3.8-4s0-.4.3-.6l.5-.5c.3-.2.5-.7.2-1.2C9.6 6 9 5.7 8.9 5.3c-.3-.3-.7-.4-1-.2h-.1c-.9.5-1.8 1.5-1.5 2.4.5 1 1.5 4.4 4.5 6.8a18 18 0 004.6 2.7c1 .3 1.9-.7 2.4-1.6.2-.4.1-.8-.2-1l-2-1.6z"/><path d="M13.2 8.1c1 0 1.4.6 1.4 1.6 0 .4.6.4.6 0 0-1.4-.7-2.1-2-2.2-.4 0-.4.6 0 .6z"/></symbol><symbol viewBox="0 0 24 24" fill="#675dac" id="icon-viber--colored"><path d="M23.2 13.9c.7-6-.4-9.8-2.3-11.6-3-2.9-13.5-3.3-17.2.2C2 4.2 1.5 6.7 1.4 9.8c0 3.1-.1 9 5.3 10.6v2.4s0 1 .6 1.2c.7.2 1-.3 3.3-3 3.7.4 6.5-.3 6.9-.5.7-.2 5-.8 5.7-6.6zm-12.3 5.5L8 23c-.3.2-.6.2-.6-.3v-4c-4.6-1.3-4.3-6.3-4.2-9 0-2.5.5-4.6 1.9-6C8.2.6 17.4 1.3 19.7 3.5c2.8 2.5 1.8 9.6 1.8 9.9-.6 4.8-4 5.1-4.6 5.3-.3.1-2.8.8-6 .6z"/><path d="M12.2 4.3c-.4 0-.4.6 0 .6 3 0 5.5 2.1 5.5 6 0 .3.6.3.6 0 0-4.2-2.7-6.6-6-6.6z"/><path d="M16.2 10.2c0 .4.5.4.5 0a4 4 0 00-4-4.3c-.3 0-.4.5 0 .6 2.3.1 3.5 1.7 3.5 3.7zm-.7 2.6a1 1 0 00-1.2.1l-.4.6c-.2.3-.7.3-.7.3-3-.8-3.8-4-3.8-4s0-.4.3-.6l.5-.5c.3-.2.5-.7.2-1.2C9.6 6 9 5.7 8.9 5.3c-.3-.3-.7-.4-1-.2h-.1c-.9.5-1.8 1.5-1.5 2.4.5 1 1.5 4.4 4.5 6.8a18 18 0 004.6 2.7c1 .3 1.9-.7 2.4-1.6.2-.4.1-.8-.2-1l-2-1.6z"/><path d="M13.2 8.1c1 0 1.4.6 1.4 1.6 0 .4.6.4.6 0 0-1.4-.7-2.1-2-2.2-.4 0-.4.6 0 .6z"/></symbol><symbol viewBox="0 0 24 24" id="icon-vk"><path d="M19.6 7.7c.1-.4 0-.7-.5-.7h-1.7c-.5 0-.7.3-.8.5 0 0-1 2.2-2.2 3.6-.4.4-.6.5-.8.5 0 0-.2-.1-.2-.5V7.6c0-.4-.2-.6-.6-.6h-2.7c-.3 0-.4.2-.4.4 0 .4.6.5.7 1.7v2.6c0 .6-.1.7-.4.7-.6 0-2-2.2-2.9-4.7-.1-.5-.3-.7-.7-.7H4.6c-.5 0-.6.2-.6.5 0 .4.6 2.8 2.8 5.8 1.4 2 3.5 3.2 5.3 3.2 1.1 0 1.3-.2 1.3-.7v-1.5c0-.6 0-.6.4-.6.3 0 .7.1 1.8 1.1 1.1 1.2 1.3 1.7 2 1.7h1.8c.5 0 .7-.2.6-.7-.2-.5-.8-1.2-1.5-2l-1.2-1.3c-.3-.4-.2-.5 0-.8 0 0 2.1-3 2.3-4" fill="#FFF" fill-rule="evenodd"/></symbol></svg>