<svg xmlns="http://www.w3.org/2000/svg" viewBox="0 0 102 32"><g data-name="Subtraction 1" fill="none"><path d="M63.7 31.6V30c10.1-.3 19.5-1.4 26.4-3.3 6.9-2 10.7-4.4 10.7-7 0-1.3-1.1-2.7-3.3-4a34.3 34.3 0 00-8.8-3.2c-7.8-2-18.2-3-29.3-3-11.3 0-22 1-29.8 3.1h-1.4a116 116 0 0131.8-4c11.3 0 21.9 1.3 29.8 3.6a32.3 32.3 0 019 3.8c2.1 1.5 3.2 3 3.2 4.5s-1 3-3 4.2a28.7 28.7 0 01-8 3.5c-7 2-16.7 3.2-27.3 3.4z"/><path d="M63.7 31.6V30c10.1-.3 19.5-1.4 26.4-3.3 6.9-2 10.7-4.4 10.7-7 0-1.3-1.1-2.7-3.3-4-2-1.2-5-2.3-8.8-3.2-7.8-2-18.2-3-29.3-3-11.3 0-22 1-29.8 3.1h-1.4c8.3-2.5 20-4 31.8-4 11.3 0 21.9 1.3 29.8 3.6 3.9 1.1 6.9 2.4 9 3.8 2.1 1.5 3.2 3 3.2 4.5s-1 3-3 4.2a28.9 28.9 0 01-8 3.5c-7 2-16.7 3.2-27.3 3.4z" fill="#fff"/></g><path data-name="Logo ПосудаМАРТ" d="M9.4 10v13.7H8.3V11H1.2v12.7H0V10zm6.4 13.8a4.4 4.4 0 01-2.2-.6 4 4 0 01-1.6-1.5 4.4 4.4 0 01-.5-2.2 4.4 4.4 0 01.5-2.2 4 4 0 011.6-1.5 4.4 4.4 0 012.2-.6 4.4 4.4 0 012.2.6 4 4 0 011.5 1.5 4.4 4.4 0 01.5 2.2 4.4 4.4 0 01-.5 2.2 4 4 0 01-1.5 1.5 4.4 4.4 0 01-2.2.6zm0-1a3.2 3.2 0 001.6-.4 2.8 2.8 0 001-1.2 3.6 3.6 0 00.5-1.7 3.6 3.6 0 00-.4-1.7 2.8 2.8 0 00-1.1-1.2 3.2 3.2 0 00-1.6-.4 3.2 3.2 0 00-1.6.4 2.9 2.9 0 00-1.2 1.2 3.5 3.5 0 00-.4 1.7 3.5 3.5 0 00.4 1.7 2.9 2.9 0 001.2 1.2 3.2 3.2 0 001.6.4zm9.5 1a4.5 4.5 0 01-2.2-.6 4 4 0 01-1.5-1.5 4.4 4.4 0 01-.6-2.2 4.4 4.4 0 01.6-2.2 4 4 0 011.5-1.5 4.5 4.5 0 012.2-.6 4.3 4.3 0 012 .5 3.2 3.2 0 011.3 1.2l-.8.6a2.6 2.6 0 00-1-1 3.1 3.1 0 00-1.5-.3 3.3 3.3 0 00-1.6.4 2.9 2.9 0 00-1.1 1.2 3.5 3.5 0 00-.4 1.7 3.5 3.5 0 00.4 1.7 2.9 2.9 0 001.1 1.2 3.3 3.3 0 001.6.4 3.2 3.2 0 001.4-.3 2.6 2.6 0 001-1l1 .6a3.2 3.2 0 01-1.4 1.3 4.3 4.3 0 01-2 .4zm12-8.5L33 24.7a4 4 0 01-1.2 1.7 2.6 2.6 0 01-1.6.5 3.3 3.3 0 01-1.1-.2 2.5 2.5 0 01-1-.6l.6-.8a2.1 2.1 0 001.5.6 1.6 1.6 0 001-.3 2.9 2.9 0 00.8-1.1l.3-.8-3.7-8.4h1.2l3.1 7.1 3.2-7.1zm8.9 7.4v3h-1v-2h-7.6v2h-1v-3h.4q.8 0 1.1-1.2a18.3 18.3 0 00.5-3.4v-2.8H45v7.4zm-6.6-4.5a21 21 0 01-.3 3 2.5 2.5 0 01-.8 1.5h5.3v-6.4h-4.1zm11-3a3.6 3.6 0 012.6.9 3.2 3.2 0 01.9 2.4v5.2H53v-1.3a2.6 2.6 0 01-1.1 1 4 4 0 01-1.8.4 3.5 3.5 0 01-2.3-.7 2.2 2.2 0 01-.8-1.8 2.1 2.1 0 01.8-1.7 3.8 3.8 0 012.5-.6h2.6v-.6a2.2 2.2 0 00-.6-1.6 2.5 2.5 0 00-1.8-.6 4.5 4.5 0 00-1.5.3 3.9 3.9 0 00-1.3.7l-.5-.8a4.5 4.5 0 011.6-.9 6 6 0 011.9-.3zm-.3 7.7a3 3 0 001.6-.4 2.6 2.6 0 001-1.3v-1.4h-2.6q-2.2 0-2.2 1.5a1.4 1.4 0 00.6 1.2 2.5 2.5 0 001.6.4zm14.4.8l3-20.8-5.8 11.4H61L54.3 2.9l3.9 20.8h-1.9L52.5 0h2.1l7 12 6-12h1.8l-2.9 23.7zm7-8.6a4.2 4.2 0 013 .9 3.5 3.5 0 011 2.7v5h-2v-1a2.3 2.3 0 01-1 .8 4.1 4.1 0 01-1.6.3 4 4 0 01-1.7-.3 2.6 2.6 0 01-1.1-1 2.3 2.3 0 01-.4-1.3 2.3 2.3 0 01.9-1.8 4.3 4.3 0 012.7-.7h2.2v-.1a1.8 1.8 0 00-.6-1.4 2.3 2.3 0 00-1.6-.5 4.6 4.6 0 00-1.4.2 3.5 3.5 0 00-1.1.7l-.8-1.5a4.9 4.9 0 011.6-.8 7.2 7.2 0 012-.2zm-.2 7.3A2.6 2.6 0 0073 22a1.9 1.9 0 00.8-1v-1h-2Q70 20 70 21.2a1 1 0 00.4.8 2 2 0 001.2.4zM82.3 15a4.5 4.5 0 012.2.5A4 4 0 0186 17a4.6 4.6 0 01.6 2.3 4.6 4.6 0 01-.6 2.3 3.9 3.9 0 01-1.5 1.6 4.5 4.5 0 01-2.2.5 3.5 3.5 0 01-2.8-1.1v8.9h-2V15.2h2v1a3.1 3.1 0 011.1-.8 4.1 4.1 0 011.6-.3zm-.3 7a2.4 2.4 0 001.8-.7 2.7 2.7 0 00.7-2 2.7 2.7 0 00-.7-2 2.4 2.4 0 00-1.8-.6 2.6 2.6 0 00-1.3.3 2.4 2.4 0 00-.9 1 2.9 2.9 0 00-.3 1.3 2.9 2.9 0 00.3 1.4 2.4 2.4 0 001 1 2.6 2.6 0 001.2.3zm12.4-5.3h-3v6.9h-2v-6.9h-3V15h8z" fill="#fff"/></svg>